<svg xmlns="http://www.w3.org/2000/svg" xmlns:xlink="http://www.w3.org/1999/xlink" fill="none" version="1.1" width="300" height="300" viewBox="0 0 300 300"><defs><clipPath id="master_svg0_31_330"><rect x="120" y="120" width="60" height="60" rx="0"/></clipPath></defs><g><g><rect x="0" y="0" width="300" height="300" rx="0" fill="#FFFFFF" fill-opacity="0"/></g><g clip-path="url(#master_svg0_31_330)"><g><path d="M132.5,130C131.1193,130,130,131.1193,130,132.5C130,132.5,130,167.5,130,167.5C130,168.572,130.67475,169.4865,131.62273,169.8418C131.62273,169.8418,158.2323,143.2322,158.2323,143.2322C159.20850000000002,142.2559,160.79149999999998,142.2559,161.7677,143.2322C161.7677,143.2322,170,151.4645,170,151.4645C170,151.4645,170,132.5,170,132.5C170,131.11928,168.8807,130,167.5,130C167.5,130,132.5,130,132.5,130C132.5,130,132.5,130,132.5,130ZM175,157.4975C175,157.4975,175,132.5,175,132.5C175,128.35788,171.6423,125,167.5,125C167.5,125,132.5,125,132.5,125C128.35788,125,125,128.35788,125,132.5C125,132.5,125,167.5,125,167.5C125,171.6423,128.35788,175,132.5,175C132.5,175,167.5,175,167.5,175C171.6423,175,175,171.6423,175,167.5C175,167.5,175,157.5025,175,157.5025C175,157.5008,175,157.4992,175,157.4975C175,157.4975,175,157.4975,175,157.4975ZM170,158.5355C170,158.5355,160,148.5355,160,148.5355C160,148.5355,138.5355,170,138.5355,170C138.5355,170,167.5,170,167.5,170C168.8807,170,170,168.8807,170,167.5C170,167.5,170,158.5355,170,158.5355C170,158.5355,170,158.5355,170,158.5355ZM141.25,140C140.5596,140,140,140.5596,140,141.25C140,141.9403,140.5596,142.5,141.25,142.5C141.9403,142.5,142.5,141.9403,142.5,141.25C142.5,140.5596,141.9403,140,141.25,140C141.25,140,141.25,140,141.25,140ZM135,141.25C135,137.7982,137.7982,135,141.25,135C144.7018,135,147.5,137.7982,147.5,141.25C147.5,144.7018,144.7018,147.5,141.25,147.5C137.7982,147.5,135,144.7018,135,141.25C135,141.25,135,141.25,135,141.25Z" fill-rule="evenodd" fill="#868686" fill-opacity="0.4099999964237213"/></g></g></g></svg>